<svg width="32" height="32" viewBox="0 0 32 32" fill="none" xmlns="http://www.w3.org/2000/svg">
<circle cx="16" cy="16" r="15.5" fill="#808080" stroke="white"/>
<path fill-rule="evenodd" clip-rule="evenodd" d="M16 18.8444C17.3746 18.8444 18.4889 17.7301 18.4889 16.3555C18.4889 14.9809 17.3746 13.8666 16 13.8666C14.6254 13.8666 13.5111 14.9809 13.5111 16.3555C13.5111 17.7301 14.6254 18.8444 16 18.8444ZM16 18.2222C17.031 18.2222 17.8667 17.3865 17.8667 16.3555C17.8667 15.3246 17.031 14.4889 16 14.4889C14.9691 14.4889 14.1334 15.3246 14.1334 16.3555C14.1334 17.3865 14.9691 18.2222 16 18.2222Z" fill="white"/>
<path fill-rule="evenodd" clip-rule="evenodd" d="M18.9969 11.3777C18.2512 10.6923 17.5642 10.1333 15.978 10.1333C14.3917 10.1333 13.7047 10.6923 12.959 11.3777H10.4C9.36909 11.3777 8.53336 12.2135 8.53336 13.2444V19.4666C8.53336 20.4976 9.36909 21.3333 10.4 21.3333H21.6C22.631 21.3333 23.4667 20.4976 23.4667 19.4666V13.2444C23.4667 12.2135 22.631 11.3777 21.6 11.3777H18.9969ZM18.7535 12L18.6882 11.9396C18.6261 11.8822 18.566 11.8266 18.5087 11.7744C18.2747 11.5611 18.0669 11.3838 17.8429 11.2366C17.4207 10.959 16.8922 10.7555 15.978 10.7555C15.0637 10.7555 14.5352 10.959 14.113 11.2366C13.889 11.3838 13.6812 11.5611 13.4472 11.7744C13.3898 11.8267 13.3299 11.8821 13.2677 11.9396L13.2024 12H10.4C9.71273 12 9.15558 12.5571 9.15558 13.2444V19.4666C9.15558 20.1539 9.71273 20.7111 10.4 20.7111H21.6C22.2873 20.7111 22.8445 20.1539 22.8445 19.4666V13.2444C22.8445 12.5571 22.2873 12 21.6 12H18.7535Z" fill="white"/>
</svg>
